<svg width="733" height="446" viewBox="0 0 733 446" fill="none" xmlns="http://www.w3.org/2000/svg">
<path fill-rule="evenodd" clip-rule="evenodd" d="M733 220.49L646.869 94H590V357.383L733 383.661V220.49Z" fill="#30252F"/>
<path fill-rule="evenodd" clip-rule="evenodd" d="M733 318.346V446H688V285.352C693.217 285.228 698.471 287.04 702.605 290.788L733 318.346Z" fill="#3E2D0B"/>
<path fill-rule="evenodd" clip-rule="evenodd" d="M688 285.352C683.116 285.468 678.265 287.28 674.395 290.788L503.201 446H688V285.352Z" fill="#4E380E"/>
<path fill-rule="evenodd" clip-rule="evenodd" d="M590 350.769L438.075 213.027L517.467 94H590V350.769ZM421 205.352C416.116 205.468 411.264 207.28 407.395 210.788L175.601 420.942C167.861 427.959 167.031 438.157 170.973 446H421L421 326.326V238.627L421 205.352Z" fill="#4B3A4A"/>
<path d="M521.749 87.5812L516.633 95.2506C524.114 103.323 532.252 108.23 546.5 111.5C577 118.5 599 111.5 582.5 150.5C566 189.5 557 233.5 578.5 239.5C600 245.5 628.5 275.5 628.5 286C628.5 296.5 639.5 314.5 654 311.5C668.5 308.5 676 296.5 674 286C672 275.5 640 260 638.5 242.5C637 225 619 223 608 212C594.963 198.963 611.357 181.04 619 170C630.255 153.743 629.346 136.443 628.733 124.764C627.917 109.229 634.92 101.665 648 95.5L643.5 88.5C603.5 95.2506 561 95.2506 521.749 87.5812Z" fill="#D33E1D"/>
<path fill-rule="evenodd" clip-rule="evenodd" d="M688 285.352C683.116 285.468 678.265 287.28 674.395 290.788L503.201 446H688V285.352Z" fill="#4E380E"/>
<path fill-rule="evenodd" clip-rule="evenodd" d="M219 247.352C213.783 247.228 208.529 249.04 204.395 252.788L0 438.101V446H219V247.352Z" fill="#4E380E"/>
<path d="M232.605 252.788L296.838 311.024L219 381.595V247.352C223.884 247.468 228.735 249.28 232.605 252.788Z" fill="#3E2D0B"/>
<path d="M435.605 210.788L697.106 446H421V205.352C426.217 205.228 431.471 207.04 435.605 210.788Z" fill="#4F2614"/>
<path d="M421 205.352C416.116 205.468 411.265 207.28 407.395 210.788L147.963 446H421V205.352Z" fill="#632F19"/>
</svg>
