<svg width="897" height="446" viewBox="0 0 897 446" fill="none" xmlns="http://www.w3.org/2000/svg">
<path d="M591 94V400.861L705.121 446H892.319L648.398 94H591Z" fill="#30252F"/>
<path d="M689 285.352C684.116 285.468 679.265 287.28 675.395 290.788L504.201 446H689V285.352Z" fill="#4E380E"/>
<path d="M591 350.769L439.075 213.027L518.467 94H591V350.769Z" fill="#4B3A4A"/>
<path d="M408.395 210.788C412.264 207.28 417.116 205.468 422 205.352V446H171.973C168.031 438.157 168.861 427.959 176.601 420.942L408.395 210.788Z" fill="#632F19"/>
<path fill-rule="evenodd" clip-rule="evenodd" d="M703.605 290.788C695.602 283.532 683.398 283.532 675.395 290.788L504.201 446H874.799L703.605 290.788Z" fill="#3E2D0B"/>
<path d="M522.749 87.5812L517.633 95.2506C525.114 103.323 533.252 108.23 547.5 111.5C578 118.5 600 111.5 583.5 150.5C567 189.5 558 233.5 579.5 239.5C601 245.5 629.5 275.5 629.5 286C629.5 296.5 640.5 314.5 655 311.5C669.5 308.5 677 296.5 675 286C673 275.5 641 260 639.5 242.5C638 225 620 223 609 212C595.963 198.963 612.357 181.04 620 170C631.255 153.743 630.346 136.443 629.733 124.764C628.917 109.229 635.92 101.665 649 95.5L644.5 88.5C604.5 95.2506 562 95.2506 522.749 87.5812Z" fill="#D33E1D"/>
<path d="M689 285.352C684.116 285.468 679.265 287.28 675.395 290.788L504.201 446H689V285.352Z" fill="#4E380E"/>
<path d="M229 247.352C223.783 247.228 218.529 249.04 214.395 252.788L1.2876 446H229V247.352Z" fill="#4E380E"/>
<path d="M233.605 252.788L297.838 311.024L220 381.595V247.352C224.884 247.468 229.735 249.28 233.605 252.788Z" fill="#3E2D0B"/>
<path d="M436.605 210.788L698.106 446H422V205.352C427.217 205.228 432.471 207.04 436.605 210.788Z" fill="#4F2614"/>
<path d="M422 205.352C417.116 205.468 412.265 207.28 408.395 210.788L148.963 446H422V205.352Z" fill="#632F19"/>
</svg>
