<svg width="733" height="446" viewBox="0 0 733 446" fill="none" xmlns="http://www.w3.org/2000/svg">
<path fill-rule="evenodd" clip-rule="evenodd" d="M733 220.49L646.869 94H590V357.383L733 383.661V220.49Z" fill="#30252F"/>
<path fill-rule="evenodd" clip-rule="evenodd" d="M733 318.346V446H688V285.352C693.217 285.228 698.471 287.04 702.605 290.788L733 318.346Z" fill="#3E2D0B"/>
<path fill-rule="evenodd" clip-rule="evenodd" d="M688 285.352C683.116 285.468 678.265 287.28 674.395 290.788L503.201 446H688V285.352Z" fill="#4E380E"/>
<path fill-rule="evenodd" clip-rule="evenodd" d="M590 350.769L438.075 213.027L517.467 94H590V350.769Z" fill="#4B3A4A"/>
<path d="M521.749 87.5812L516.633 95.2506C524.114 103.323 532.252 108.23 546.5 111.5C552.54 112.886 558.246 113.723 563.386 114.477C584.203 117.531 595.733 119.223 582.5 150.5C566 189.5 557 233.5 578.5 239.5C600 245.5 628.5 275.5 628.5 286C628.5 296.5 639.5 314.5 654 311.5C668.5 308.5 676 296.5 674 286C673.152 281.548 666.911 276.197 659.888 270.176C650.348 261.997 639.364 252.58 638.5 242.5C637.513 230.989 629.387 226.184 620.81 221.113C616.348 218.475 611.764 215.764 608 212C597.304 201.304 605.045 190.136 617.892 171.599L618.253 171.078C618.501 170.721 618.749 170.362 619 170C630.255 153.743 629.346 136.443 628.733 124.764C628.611 122.435 628.5 120.329 628.5 118.5C628.5 118.17 628.5 117.846 628.499 117.53C628.485 107.316 628.481 104.275 644 97L644.215 96.8991C645.047 96.5094 647.181 95.8859 648 95.5L643.5 88.5C627.152 91.8286 605.853 94 584.5 94C560.811 94 539.018 91.6015 521.749 87.5812Z" fill="#D33E1D"/>
<path fill-rule="evenodd" clip-rule="evenodd" d="M688 285.352C683.116 285.468 678.265 287.28 674.395 290.788L503.201 446H688V285.352Z" fill="#4E380E"/>
<path fill-rule="evenodd" clip-rule="evenodd" d="M219 247.352C213.783 247.228 208.529 249.04 204.395 252.788L0 438.101V446H219V247.352Z" fill="#4E380E"/>
<path fill-rule="evenodd" clip-rule="evenodd" d="M407.395 210.788C411.265 207.28 416.116 205.468 421 205.352V446H170.973C167.031 438.157 167.861 427.959 175.601 420.942L407.395 210.788Z" fill="#632F19"/>
<path fill-rule="evenodd" clip-rule="evenodd" d="M232.605 252.788L296.838 311.024L219 381.595V247.352C223.884 247.468 228.735 249.28 232.605 252.788Z" fill="#3E2D0B"/>
<path fill-rule="evenodd" clip-rule="evenodd" d="M421 446H672.027C675.969 438.157 675.139 427.959 667.399 420.942L435.605 210.788C431.471 207.04 426.217 205.228 421 205.352V446Z" fill="#4F2614"/>
</svg>
