<svg width="100" height="100" viewBox="0 0 100 100" fill="none" xmlns="http://www.w3.org/2000/svg">
<rect x="51.8005" y="5" width="42.8815" height="81.4748" rx="12" transform="rotate(30 51.8005 5)" fill="#D7C198"/>
<rect x="65.6215" y="6.79018" width="16.0806" height="92.1952" rx="8.04028" transform="rotate(30 65.6215 6.79018)" fill="#C00202"/>
<path d="M64.243 17.7542L65.9544 24.1415C66.5262 26.2753 65.2599 28.4687 63.126 29.0404L60.6024 29.7166C58.4685 30.2884 57.2022 32.4817 57.774 34.6156L58.4502 37.1392C59.022 39.2731 57.7556 41.4664 55.6218 42.0382L53.0982 42.7144C50.9643 43.2862 49.698 45.4795 50.2697 47.6134L50.9459 50.137C51.5177 52.2708 50.2514 54.4642 48.1175 55.036L45.5939 55.7122C43.46 56.2839 42.1937 58.4773 42.7655 60.6111L43.4417 63.1347C44.0134 65.2686 42.7471 67.4619 40.6132 68.0337L38.0896 68.7099C35.9558 69.2817 34.6894 71.475 35.2612 73.6089L35.9374 76.1325C36.5092 78.2664 35.2428 80.4597 33.109 81.0315L26.7217 82.7429" stroke="#FFF61B" stroke-width="3" stroke-linecap="round"/>
</svg>
