<svg width="100" height="100" viewBox="0 0 100 100" fill="none" xmlns="http://www.w3.org/2000/svg">
<path d="M35.5 86.5H46.5V96C46.5 97.933 44.933 99.5 43 99.5H39C37.067 99.5 35.5 97.933 35.5 96V86.5Z" fill="#505050" stroke="black"/>
<path d="M53.5 86.5H64.5V96C64.5 97.933 62.933 99.5 61 99.5H57C55.067 99.5 53.5 97.933 53.5 96V86.5Z" fill="#505050" stroke="black"/>
<path d="M32 65.5H67C70.0376 65.5 72.5 67.9624 72.5 71V74C72.5 81.4558 66.4558 87.5 59 87.5H41C33.5442 87.5 27.5 81.4558 27.5 74V70C27.5 67.5147 29.5147 65.5 32 65.5Z" fill="#505050" stroke="black"/>
<rect x="43.5" y="72.5" width="13" height="8" rx="4" fill="#E4E4E4" stroke="black"/>
<rect x="18.5" y="39.5" width="64" height="37" rx="18.5" fill="#505050" stroke="black"/>
<path d="M66.5 25V39C66.5 43.1421 63.1421 46.5 59 46.5H41C36.8579 46.5 33.5 43.1421 33.5 39V25C33.5 15.8873 40.8873 8.5 50 8.5C59.1127 8.5 66.5 15.8873 66.5 25Z" fill="#505050" stroke="black"/>
<path d="M23.6244 50.4812L27.8121 52.0403C30.7955 53.1512 32.2156 56.5552 30.9062 59.4569L21.9954 79.2032C20.8256 81.7954 17.8726 83.0684 15.1848 82.139L13.7068 81.6279C10.9231 80.6654 9.39175 77.6807 10.2335 74.8581L16.4346 54.0637C17.3439 51.0148 20.6427 49.371 23.6244 50.4812Z" fill="#505050" stroke="black"/>
<path d="M12.1117 77.5H18.4615C19.9687 77.5 21.1332 78.8237 20.9411 80.3185L18.7574 97.3185C18.5971 98.5658 17.5353 99.5 16.2777 99.5H13.422C12.1158 99.5 11.0297 98.4945 10.9293 97.1921L9.61907 80.1921C9.50714 78.74 10.6552 77.5 12.1117 77.5Z" fill="#505050" stroke="black"/>
<path d="M76.1064 50.4991L72.0505 52.0234C69.0715 53.1431 67.6461 56.5555 68.9445 59.4597L77.767 79.1946C78.9274 81.7904 81.872 83.0603 84.5573 82.1231L85.9297 81.6441C88.7114 80.6731 90.247 77.677 89.4117 74.8498L83.2726 54.0696C82.3711 51.0181 79.0837 49.3801 76.1064 50.4991Z" fill="#505050" stroke="black"/>
<path d="M87.5298 77.5H81.295C79.789 77.5 78.6249 78.8217 78.815 80.3156L80.9784 97.3156C81.1373 98.5642 82.1997 99.5 83.4584 99.5H86.2318C87.5387 99.5 88.625 98.4934 88.7245 97.1903L90.0226 80.1903C90.1334 78.7388 88.9856 77.5 87.5298 77.5Z" fill="#505050" stroke="black"/>
<path d="M33 65.5H43C46.5899 65.5 49.5 68.4101 49.5 72V76C49.5 76.2761 49.2761 76.5 49 76.5H43C37.201 76.5 32.5 71.799 32.5 66C32.5 65.7239 32.7239 65.5 33 65.5Z" fill="#E4E4E4" stroke="black"/>
<path d="M57 65.5H67C67.2761 65.5 67.5 65.7239 67.5 66V67C67.5 72.2467 63.2467 76.5 58 76.5H51C50.7239 76.5 50.5 76.2761 50.5 76V72C50.5 68.4101 53.4101 65.5 57 65.5Z" fill="#E4E4E4" stroke="black"/>
<mask id="path-13-inside-1" fill="white">
<path fill-rule="evenodd" clip-rule="evenodd" d="M44 23.3636C40.134 23.3636 37 26.4976 37 30.3636V30.5455C37 33.6308 38.9961 36.2499 41.7674 37.1819C41.7409 37.3902 41.7273 37.6026 41.7273 37.8182V39.6364C41.7273 42.3978 43.9659 44.6364 46.7273 44.6364H53.2727C56.0342 44.6364 58.2727 42.3978 58.2727 39.6364V37.8182C58.2727 37.6026 58.2591 37.3902 58.2326 37.1819C61.0039 36.2499 63 33.6308 63 30.5455V30.3636C63 26.4976 59.866 23.3636 56 23.3636H44Z"/>
</mask>
<path fill-rule="evenodd" clip-rule="evenodd" d="M44 23.3636C40.134 23.3636 37 26.4976 37 30.3636V30.5455C37 33.6308 38.9961 36.2499 41.7674 37.1819C41.7409 37.3902 41.7273 37.6026 41.7273 37.8182V39.6364C41.7273 42.3978 43.9659 44.6364 46.7273 44.6364H53.2727C56.0342 44.6364 58.2727 42.3978 58.2727 39.6364V37.8182C58.2727 37.6026 58.2591 37.3902 58.2326 37.1819C61.0039 36.2499 63 33.6308 63 30.5455V30.3636C63 26.4976 59.866 23.3636 56 23.3636H44Z" fill="#E4E4E4"/>
<path d="M41.7674 37.1819L42.7594 37.3079L42.8626 36.4952L42.0861 36.234L41.7674 37.1819ZM58.2326 37.1819L57.9139 36.234L57.1374 36.4952L57.2406 37.3079L58.2326 37.1819ZM38 30.3636C38 27.0499 40.6863 24.3636 44 24.3636V22.3636C39.5817 22.3636 36 25.9454 36 30.3636H38ZM38 30.5455V30.3636H36V30.5455H38ZM42.0861 36.234C39.7096 35.4348 38 33.1885 38 30.5455H36C36 34.0731 38.2826 37.065 41.4486 38.1297L42.0861 36.234ZM42.7273 37.8182C42.7273 37.6448 42.7382 37.4746 42.7594 37.3079L40.7754 37.0559C40.7436 37.3059 40.7273 37.5604 40.7273 37.8182H42.7273ZM42.7273 39.6364V37.8182H40.7273V39.6364H42.7273ZM46.7273 43.6364C44.5181 43.6364 42.7273 41.8455 42.7273 39.6364H40.7273C40.7273 42.9501 43.4136 45.6364 46.7273 45.6364V43.6364ZM53.2727 43.6364H46.7273V45.6364H53.2727V43.6364ZM57.2727 39.6364C57.2727 41.8455 55.4819 43.6364 53.2727 43.6364V45.6364C56.5864 45.6364 59.2727 42.9501 59.2727 39.6364H57.2727ZM57.2727 37.8182V39.6364H59.2727V37.8182H57.2727ZM57.2406 37.3079C57.2618 37.4746 57.2727 37.6448 57.2727 37.8182H59.2727C59.2727 37.5604 59.2564 37.3059 59.2246 37.0559L57.2406 37.3079ZM62 30.5455C62 33.1885 60.2904 35.4348 57.9139 36.234L58.5514 38.1297C61.7174 37.065 64 34.0731 64 30.5455H62ZM62 30.3636V30.5455H64V30.3636H62ZM56 24.3636C59.3137 24.3636 62 27.0499 62 30.3636H64C64 25.9454 60.4183 22.3636 56 22.3636V24.3636ZM44 24.3636H56V22.3636H44V24.3636Z" fill="black" mask="url(#path-13-inside-1)"/>
</svg>
