<svg width="100" height="100" viewBox="0 0 100 100" fill="none" xmlns="http://www.w3.org/2000/svg">
<g clip-path="url(#clip0)">
<path d="M65.1622 23.8651L63.2601 38.744C62.7349 42.8527 58.9784 45.7577 54.8697 45.2325L39.9908 43.3304C35.3342 42.7352 32.0419 38.4778 32.6372 33.8212L34.4124 19.9343C35.4979 11.4429 43.2614 5.43931 51.7527 6.52478C60.244 7.61025 66.2476 15.3738 65.1622 23.8651Z" fill="#505050" stroke="black"/>
<path d="M54.4936 34.4792L54.5963 34.0827L54.2277 33.9039C51.7843 32.719 50.2549 30.0709 50.6181 27.2299L50.6412 27.0495C51.0964 23.4886 54.352 20.971 57.9129 21.4262L65.2813 22.3681C65.2657 22.8636 65.2263 23.363 65.1622 23.8651L63.2601 38.744C63.0856 40.1092 62.555 41.3403 61.7735 42.3574L58.0476 41.8811C55.5823 41.566 53.8393 39.312 54.1545 36.8468L54.385 35.0433C54.4097 34.8504 54.4461 34.6622 54.4936 34.4792Z" fill="#E4E4E4" stroke="black"/>
<path d="M39.9643 36.0496L43.4375 36.5777C50.2627 37.6153 54.9543 43.9894 53.9167 50.8145L52.494 60.1717C50.9583 70.2729 41.5246 77.2166 31.4235 75.6808L27.9502 75.1528C22.2171 74.2811 18.2761 68.9269 19.1477 63.1938L21.1716 49.882C22.5413 40.8729 30.9551 34.6799 39.9643 36.0496Z" fill="#505050" stroke="black"/>
<path d="M67.0461 34.5604L61.0748 33.2113C59.607 32.8797 58.7626 31.3359 59.2752 29.9211L65.1122 13.8114C65.5414 12.6269 66.7848 11.9469 68.0136 12.2245L70.6399 12.8178C71.9153 13.106 72.7533 14.3283 72.5621 15.6218L70.0702 32.4873C69.8575 33.9267 68.4654 34.881 67.0461 34.5604Z" fill="#505050" stroke="black"/>
<path d="M42.1766 54.2252L39.4406 51.039C37.3679 48.6253 37.7478 44.937 40.2685 43.0001L57.3738 29.8566C59.6281 28.1245 62.8125 28.4162 64.7164 30.5293L65.617 31.5288C67.5899 33.7183 67.5036 37.0959 65.4214 39.1863L50.1515 54.5165C47.9059 56.7711 44.248 56.6374 42.1766 54.2252Z" fill="#505050" stroke="black"/>
<path d="M27 65.5H34.5C40.5751 65.5 45.5 70.4249 45.5 76.5V77C45.5 84.4558 39.4558 90.5 32 90.5H28C22.201 90.5 17.5 85.799 17.5 80V75C17.5 69.7533 21.7533 65.5 27 65.5Z" fill="#505050" stroke="black"/>
<path d="M38.8464 68.534L40.8084 68.9223C43.7882 69.512 45.7257 72.4057 45.1359 75.3855L41.0197 96.1834C40.6444 98.0796 38.803 99.3125 36.9068 98.9373L31.021 97.7724C29.1247 97.3971 27.8918 95.5557 28.2671 93.6594L32.3833 72.8615C32.973 69.8818 35.8667 67.9443 38.8464 68.534Z" fill="#505050" stroke="black"/>
</g>
<defs>
<clipPath id="clip0">
<rect width="100" height="100" fill="white"/>
</clipPath>
</defs>
</svg>
