<svg width="100" height="100" viewBox="0 0 100 100" fill="none" xmlns="http://www.w3.org/2000/svg">
<path d="M66.5 25V39C66.5 43.1421 63.1421 46.5 59 46.5H41C36.8579 46.5 33.5 43.1421 33.5 39V25C33.5 15.8873 40.8873 8.5 50 8.5C59.1127 8.5 66.5 15.8873 66.5 25Z" fill="#505050" stroke="black"/>
<path d="M35.5 86.5H46.5V96C46.5 97.933 44.933 99.5 43 99.5H39C37.067 99.5 35.5 97.933 35.5 96V86.5Z" fill="#505050" stroke="black"/>
<path d="M53.5 86.5H64.5V96C64.5 97.933 62.933 99.5 61 99.5H57C55.067 99.5 53.5 97.933 53.5 96V86.5Z" fill="#505050" stroke="black"/>
<path d="M12.1117 77.5H18.4615C19.9687 77.5 21.1332 78.8237 20.9411 80.3185L18.7574 97.3185C18.5971 98.5658 17.5353 99.5 16.2777 99.5H13.422C12.1158 99.5 11.0297 98.4945 10.9293 97.1921L9.61907 80.1921C9.50714 78.74 10.6552 77.5 12.1117 77.5Z" fill="#505050" stroke="black"/>
<path d="M23.6244 50.4812L27.8121 52.0403C30.7955 53.1512 32.2156 56.5552 30.9062 59.4569L21.9954 79.2032C20.8256 81.7954 17.8726 83.0684 15.1848 82.139L13.7068 81.6279C10.9231 80.6654 9.39175 77.6807 10.2335 74.8581L16.4346 54.0637C17.3439 51.0148 20.6427 49.371 23.6244 50.4812Z" fill="#505050" stroke="black"/>
<path d="M87.5298 77.5H81.295C79.789 77.5 78.6249 78.8217 78.815 80.3156L80.9784 97.3156C81.1373 98.5642 82.1997 99.5 83.4584 99.5H86.2318C87.5387 99.5 88.625 98.4934 88.7245 97.1903L90.0226 80.1903C90.1334 78.7388 88.9856 77.5 87.5298 77.5Z" fill="#505050" stroke="black"/>
<path d="M76.1064 50.4991L72.0505 52.0234C69.0715 53.1431 67.6461 56.5555 68.9445 59.4597L77.767 79.1946C78.9274 81.7904 81.872 83.0603 84.5573 82.1231L85.9297 81.6441C88.7114 80.6731 90.247 77.677 89.4117 74.8498L83.2726 54.0696C82.3711 51.0181 79.0837 49.3801 76.1064 50.4991Z" fill="#505050" stroke="black"/>
<rect x="18.5" y="39.5" width="64" height="37" rx="18.5" fill="#505050" stroke="black"/>
<path d="M32 65.5H67C70.0376 65.5 72.5 67.9624 72.5 71V74C72.5 81.4558 66.4558 87.5 59 87.5H41C33.5442 87.5 27.5 81.4558 27.5 74V70C27.5 67.5147 29.5147 65.5 32 65.5Z" fill="#505050" stroke="black"/>
</svg>
