<svg width="150" height="100" viewBox="0 0 150 100" fill="none" xmlns="http://www.w3.org/2000/svg">
<g clip-path="url(#clip0)">
<path d="M98.8187 18.9937L96.9167 33.8726C96.3915 37.9813 92.6349 40.8863 88.5262 40.361L73.6473 38.459C68.9908 37.8638 65.6985 33.6064 66.2937 28.9498L68.0689 15.0628C69.1544 6.57152 76.9179 0.567896 85.4092 1.65336C93.9005 2.73883 99.9042 10.5024 98.8187 18.9937Z" fill="#505050" stroke="black"/>
<mask id="path-2-inside-1" fill="white">
<path fill-rule="evenodd" clip-rule="evenodd" d="M99.4455 17.0575C99.4434 17.7178 99.4005 18.3852 99.3147 19.0571L97.4126 33.936C97.2134 35.4945 96.5783 36.8906 95.6455 38.0176L91.6407 37.5056C88.9016 37.1555 86.9649 34.6511 87.315 31.912L87.5456 30.1085C87.5729 29.8947 87.6134 29.6857 87.6661 29.4824C85.0353 28.2066 83.3874 25.3555 83.7787 22.2951L83.8017 22.1147C84.2919 18.2799 87.798 15.5686 91.6328 16.0588L99.4455 17.0575Z"/>
</mask>
<path fill-rule="evenodd" clip-rule="evenodd" d="M99.4455 17.0575C99.4434 17.7178 99.4005 18.3852 99.3147 19.0571L97.4126 33.936C97.2134 35.4945 96.5783 36.8906 95.6455 38.0176L91.6407 37.5056C88.9016 37.1555 86.9649 34.6511 87.315 31.912L87.5456 30.1085C87.5729 29.8947 87.6134 29.6857 87.6661 29.4824C85.0353 28.2066 83.3874 25.3555 83.7787 22.2951L83.8017 22.1147C84.2919 18.2799 87.798 15.5686 91.6328 16.0588L99.4455 17.0575Z" fill="#E4E4E4"/>
<path d="M99.4455 17.0575L100.445 17.0606L100.448 16.1776L99.5723 16.0656L99.4455 17.0575ZM99.3147 19.0571L100.307 19.1839L99.3147 19.0571ZM97.4126 33.936L96.4207 33.8092L97.4126 33.936ZM95.6455 38.0176L95.5187 39.0095L96.0647 39.0793L96.4158 38.6552L95.6455 38.0176ZM87.315 31.912L88.307 32.0388L87.315 31.912ZM87.5456 30.1085L86.5537 29.9817L87.5456 30.1085ZM87.6661 29.4824L88.6341 29.7332L88.8396 28.9401L88.1024 28.5826L87.6661 29.4824ZM98.4455 17.0544C98.4436 17.6734 98.4034 18.2996 98.3227 18.9303L100.307 19.1839C100.398 18.4709 100.443 17.7621 100.445 17.0606L98.4455 17.0544ZM98.3227 18.9303L96.4207 33.8092L98.4046 34.0628L100.307 19.1839L98.3227 18.9303ZM96.4207 33.8092C96.2462 35.1744 95.6908 36.3945 94.8751 37.3799L96.4158 38.6552C97.4658 37.3867 98.1806 35.8146 98.4046 34.0628L96.4207 33.8092ZM91.5139 38.4976L95.5187 39.0095L95.7723 37.0257L91.7675 36.5137L91.5139 38.4976ZM86.3231 31.7852C85.9029 35.0722 88.2269 38.0774 91.5139 38.4976L91.7675 36.5137C89.5762 36.2336 88.0269 34.2301 88.307 32.0388L86.3231 31.7852ZM86.5537 29.9817L86.3231 31.7852L88.307 32.0388L88.5375 30.2353L86.5537 29.9817ZM86.698 29.2316C86.6348 29.4756 86.5864 29.726 86.5537 29.9817L88.5375 30.2353C88.5595 30.0634 88.592 29.8958 88.6341 29.7332L86.698 29.2316ZM82.7867 22.1683C82.3394 25.6674 84.2243 28.9246 87.2297 30.3822L88.1024 28.5826C85.8464 27.4885 84.4355 25.0436 84.7706 22.4219L82.7867 22.1683ZM82.8098 21.9879L82.7867 22.1683L84.7706 22.4219L84.7937 22.2415L82.8098 21.9879ZM91.7596 15.0669C87.377 14.5066 83.37 17.6053 82.8098 21.9879L84.7937 22.2415C85.2138 18.9545 88.2191 16.6306 91.506 17.0507L91.7596 15.0669ZM99.5723 16.0656L91.7596 15.0669L91.506 17.0507L99.3187 18.0494L99.5723 16.0656Z" fill="black" mask="url(#path-2-inside-1)"/>
<ellipse cx="94" cy="24.5" rx="2" ry="1.5" fill="black"/>
<path d="M90 20.5L97 22L91.75 19L90 20.5Z" fill="black"/>
<path d="M79.7794 37.5002L82.2944 39.9532C87.2365 44.7734 87.3353 52.6874 82.515 57.6295L75.9065 64.405C68.7725 71.7194 57.0599 71.8656 49.7456 64.7316L47.2306 62.2786C43.0792 58.2296 42.9962 51.5819 47.0452 47.4305L56.4466 37.7914C62.8094 31.2678 73.2558 31.1374 79.7794 37.5002Z" fill="#505050" stroke="black"/>
<path d="M109.059 44.4205L104.281 40.5927C103.107 39.6518 103.024 37.8942 104.104 36.8467L116.407 24.9199C117.311 24.043 118.727 23.9761 119.71 24.7638L121.811 26.4473C122.832 27.2649 123.05 28.7307 122.311 29.8099L112.686 43.881C111.864 45.0819 110.195 45.3302 109.059 44.4205Z" fill="#505050" stroke="black"/>
<path d="M78.0894 51.2088L77.0249 47.1462C76.2185 44.0687 78.1752 40.9191 81.2895 40.2817L102.423 35.9561C105.208 35.386 107.943 37.0428 108.73 39.7763L109.102 41.0692C109.917 43.9016 108.36 46.9003 105.573 47.8678L85.1314 54.963C82.1252 56.0065 78.8953 54.2846 78.0894 51.2088Z" fill="#505050" stroke="black"/>
<path d="M56.6326 69.8894L58.4385 69.0299C61.1812 67.7246 64.4629 68.8898 65.7683 71.6326L74.8794 90.7763C75.7101 92.5217 74.9686 94.6101 73.2232 95.4408L67.8055 98.0192C66.0601 98.8499 63.9718 98.1084 63.1411 96.363L54.0299 77.2193C52.7246 74.4765 53.8898 71.1948 56.6326 69.8894Z" fill="#505050" stroke="black"/>
<path d="M46 54.5H53.5C59.5751 54.5 64.5 59.4249 64.5 65.5V66C64.5 73.4558 58.4558 79.5 51 79.5H47C41.201 79.5 36.5 74.799 36.5 69V64C36.5 58.7533 40.7533 54.5 46 54.5Z" fill="#505050" stroke="black"/>
<path d="M49.8464 68.534L51.8084 68.9223C54.7882 69.512 56.7257 72.4057 56.1359 75.3855L52.0197 96.1834C51.6444 98.0796 49.803 99.3125 47.9068 98.9373L42.021 97.7724C40.1247 97.3971 38.8918 95.5557 39.2671 93.6594L43.3833 72.8615C43.973 69.8818 46.8667 67.9443 49.8464 68.534Z" fill="#505050" stroke="black"/>
<rect x="91.476" y="30" width="6" height="2" transform="rotate(13.7698 91.476 30)" fill="black"/>
</g>
<defs>
<clipPath id="clip0">
<rect width="150" height="100" fill="white"/>
</clipPath>
</defs>
</svg>
