<svg width="100" height="100" viewBox="0 0 100 100" fill="none" xmlns="http://www.w3.org/2000/svg">
<g clip-path="url(#clip0)">
<path d="M65.1622 23.8651L63.2601 38.744C62.7349 42.8527 58.9784 45.7577 54.8697 45.2325L39.9908 43.3304C35.3342 42.7352 32.0419 38.4778 32.6372 33.8212L34.4124 19.9343C35.4979 11.4429 43.2614 5.43931 51.7527 6.52478C60.244 7.61025 66.2476 15.3738 65.1622 23.8651Z" fill="#505050" stroke="black"/>
<mask id="path-2-inside-1" fill="white">
<path fill-rule="evenodd" clip-rule="evenodd" d="M65.7889 21.9289C65.7869 22.5892 65.744 23.2566 65.6581 23.9285L63.7561 38.8074C63.5569 40.3659 62.9218 41.762 61.9889 42.889L57.9842 42.377C55.245 42.0269 53.3084 39.5225 53.6585 36.7834L53.8891 34.9799C53.9164 34.7661 53.9569 34.5571 54.0095 34.3538C51.3788 33.078 49.7309 30.2269 50.1221 27.1665L50.1452 26.9861C50.6354 23.1513 54.1415 20.44 57.9763 20.9302L65.7889 21.9289Z"/>
</mask>
<path fill-rule="evenodd" clip-rule="evenodd" d="M65.7889 21.9289C65.7869 22.5892 65.744 23.2566 65.6581 23.9285L63.7561 38.8074C63.5569 40.3659 62.9218 41.762 61.9889 42.889L57.9842 42.377C55.245 42.0269 53.3084 39.5225 53.6585 36.7834L53.8891 34.9799C53.9164 34.7661 53.9569 34.5571 54.0095 34.3538C51.3788 33.078 49.7309 30.2269 50.1221 27.1665L50.1452 26.9861C50.6354 23.1513 54.1415 20.44 57.9763 20.9302L65.7889 21.9289Z" fill="#E4E4E4"/>
<path d="M65.7889 21.9289L66.7889 21.932L66.7917 21.049L65.9157 20.937L65.7889 21.9289ZM65.6581 23.9285L66.65 24.0553L65.6581 23.9285ZM63.7561 38.8074L62.7642 38.6806L63.7561 38.8074ZM61.9889 42.889L61.8621 43.8809L62.4082 43.9507L62.7593 43.5266L61.9889 42.889ZM53.6585 36.7834L54.6504 36.9102L53.6585 36.7834ZM53.8891 34.9799L52.8971 34.8531L53.8891 34.9799ZM54.0095 34.3538L54.9776 34.6046L55.183 33.8115L54.4459 33.454L54.0095 34.3538ZM57.9763 20.9302L57.8495 21.9221L57.9763 20.9302ZM64.7889 21.9258C64.787 22.5448 64.7468 23.1709 64.6662 23.8017L66.65 24.0553C66.7412 23.3423 66.7868 22.6335 66.7889 21.932L64.7889 21.9258ZM64.6662 23.8017L62.7642 38.6806L64.748 38.9342L66.65 24.0553L64.6662 23.8017ZM62.7642 38.6806C62.5897 40.0458 62.0343 41.2659 61.2186 42.2513L62.7593 43.5266C63.8093 42.2581 64.5241 40.686 64.748 38.9342L62.7642 38.6806ZM57.8574 43.369L61.8621 43.8809L62.1157 41.8971L58.111 41.3851L57.8574 43.369ZM52.6666 36.6566C52.2464 39.9436 54.5704 42.9488 57.8574 43.369L58.111 41.3851C55.9196 41.105 54.3703 39.1015 54.6504 36.9102L52.6666 36.6566ZM52.8971 34.8531L52.6666 36.6566L54.6504 36.9102L54.881 35.1067L52.8971 34.8531ZM53.0415 34.103C52.9783 34.347 52.9298 34.5974 52.8971 34.8531L54.881 35.1067C54.903 34.9348 54.9354 34.7672 54.9776 34.6046L53.0415 34.103ZM49.1302 27.0396C48.6829 30.5388 50.5677 33.796 53.5732 35.2536L54.4459 33.454C52.1899 32.3599 50.7789 29.915 51.1141 27.2933L49.1302 27.0396ZM49.1533 26.8593L49.1302 27.0396L51.1141 27.2933L51.1371 27.1129L49.1533 26.8593ZM58.1031 19.9383C53.7205 19.378 49.7135 22.4767 49.1533 26.8593L51.1371 27.1129C51.5573 23.8259 54.5625 21.502 57.8495 21.9221L58.1031 19.9383ZM65.9157 20.937L58.1031 19.9383L57.8495 21.9221L65.6621 22.9208L65.9157 20.937Z" fill="black" mask="url(#path-2-inside-1)"/>
<path d="M39.9643 36.0496L43.4375 36.5777C50.2627 37.6153 54.9543 43.9894 53.9167 50.8145L52.494 60.1717C50.9583 70.2729 41.5246 77.2166 31.4235 75.6808L27.9502 75.1528C22.2171 74.2811 18.2761 68.9269 19.1477 63.1938L21.1716 49.882C22.5413 40.8729 30.9551 34.6799 39.9643 36.0496Z" fill="#505050" stroke="black"/>
<path d="M67.0461 34.5604L61.0748 33.2113C59.607 32.8797 58.7626 31.336 59.2752 29.9211L65.1122 13.8114C65.5414 12.627 66.7848 11.9469 68.0136 12.2245L70.6399 12.8179C71.9153 13.106 72.7533 14.3283 72.5621 15.6218L70.0702 32.4873C69.8575 33.9267 68.4654 34.8811 67.0461 34.5604Z" fill="#505050" stroke="black"/>
<path d="M42.1766 54.2252L39.4406 51.039C37.3679 48.6253 37.7478 44.937 40.2685 43.0001L57.3738 29.8566C59.6281 28.1245 62.8125 28.4162 64.7165 30.5293L65.617 31.5288C67.5899 33.7183 67.5036 37.0959 65.4214 39.1863L50.1515 54.5165C47.9059 56.7711 44.2481 56.6374 42.1766 54.2252Z" fill="#505050" stroke="black"/>
<path d="M27 65.5H34.5C40.5751 65.5 45.5 70.4249 45.5 76.5V77C45.5 84.4558 39.4558 90.5 32 90.5H28C22.201 90.5 17.5 85.799 17.5 80V75C17.5 69.7533 21.7533 65.5 27 65.5Z" fill="#505050" stroke="black"/>
<path d="M38.8464 68.534L40.8084 68.9223C43.7882 69.512 45.7257 72.4057 45.1359 75.3855L41.0197 96.1834C40.6444 98.0796 38.803 99.3125 36.9068 98.9373L31.021 97.7724C29.1247 97.3971 27.8918 95.5557 28.2671 93.6594L32.3833 72.8615C32.973 69.8818 35.8667 67.9443 38.8464 68.534Z" fill="#505050" stroke="black"/>
</g>
<defs>
<clipPath id="clip0">
<rect width="100" height="100" fill="white"/>
</clipPath>
</defs>
</svg>
