<svg width="100" height="100" viewBox="0 0 100 100" fill="none" xmlns="http://www.w3.org/2000/svg">
<g clip-path="url(#clip0)">
<path d="M90.6664 61.1185L77.7668 68.7736C74.2047 70.8874 69.6034 69.7134 67.4895 66.1513L59.8344 53.2516C57.4387 49.2145 58.7693 43.9997 62.8064 41.604L74.846 34.4593C82.2078 30.0906 91.7172 32.517 96.0859 39.8787C100.455 47.2405 98.0282 56.7499 90.6664 61.1185Z" fill="#505050" stroke="black"/>
<path d="M75.7351 59.2387L76.1109 59.0757L76.025 58.6752C75.4559 56.02 76.6024 53.185 79.0655 51.7233L78.8103 51.2934L79.0655 51.7233L79.2219 51.6306C82.3091 49.7985 86.2969 50.816 88.1289 53.9032L91.9199 60.2914C91.5197 60.584 91.1017 60.8602 90.6664 61.1185L77.7668 68.7736C76.5832 69.4759 75.2862 69.8151 74.0036 69.8248L72.0867 66.5945C70.8183 64.4572 71.5228 61.6964 73.66 60.4281L75.2236 59.5002C75.3909 59.401 75.5617 59.3139 75.7351 59.2387Z" fill="#E4E4E4" stroke="black"/>
<ellipse cx="82.3061" cy="61.2341" rx="2" ry="0.716879" transform="rotate(59.5822 82.3061 61.2341)" fill="black"/>
<path d="M83.5439 55.877L86.2178 62.5178L85.7663 56.488L83.5439 55.877Z" fill="black"/>
<path d="M68.4856 63.4969L68.8188 66.9942C69.4736 73.8667 64.4331 79.9687 57.5607 80.6234L48.1386 81.5211C37.9674 82.4902 28.9365 75.0303 27.9674 64.8591L27.6342 61.3618C27.0842 55.5889 31.3182 50.4633 37.091 49.9133L50.495 48.6362C59.5667 47.7719 67.6213 54.4253 68.4856 63.4969Z" fill="#505050" stroke="black"/>
<path d="M48.8783 94.679L49.2021 88.5658C49.2816 87.063 50.6611 85.9707 52.142 86.2376L69.0049 89.2771C70.2447 89.5006 71.1245 90.6116 71.0579 91.8697L70.9155 94.5584C70.8464 95.8641 69.7827 96.896 68.4755 96.9255L51.4313 97.3106C49.9766 97.3435 48.8013 96.132 48.8783 94.679Z" fill="#505050" stroke="black"/>
<path d="M59.4749 64.1594L63.5285 65.2574C66.5993 66.0892 68.3578 69.3535 67.3611 72.3722L60.5981 92.8565C59.7068 95.556 56.9088 97.1042 54.1465 96.4262L52.8399 96.1056C49.9776 95.4031 48.1509 92.5608 48.6985 89.6616L52.7145 68.4C53.3052 65.2731 56.4059 63.3281 59.4749 64.1594Z" fill="#505050" stroke="black"/>
<path d="M34.7304 57.5915L41.1533 61.4641C46.356 64.6009 48.0307 71.3613 44.8939 76.564L44.6357 76.9922C40.786 83.3773 32.4891 85.4326 26.104 81.5829L22.6784 79.5175C17.7122 76.5233 16.1137 70.0701 19.1079 65.104L21.6896 60.822C24.3986 56.3288 30.2372 54.8825 34.7304 57.5915Z" fill="#505050" stroke="black"/>
<path d="M33.8464 68.6554L35.8084 69.0437C38.7882 69.6334 40.7257 72.5271 40.1359 75.5068L36.0197 96.3047C35.6444 98.201 33.803 99.4339 31.9068 99.0586L26.021 97.8937C24.1247 97.5184 22.8918 95.677 23.2671 93.7808L27.3833 72.9829C27.973 70.0031 30.8667 68.0656 33.8464 68.6554Z" fill="#505050" stroke="black"/>
</g>
<defs>
<clipPath id="clip0">
<rect width="100" height="100" fill="white"/>
</clipPath>
</defs>
</svg>
