<svg width="100" height="100" viewBox="0 0 100 100" fill="none" xmlns="http://www.w3.org/2000/svg">
<g clip-path="url(#clip0)">
<path d="M90.6664 61.1185L77.7668 68.7736C74.2047 70.8874 69.6034 69.7134 67.4895 66.1513L59.8344 53.2516C57.4387 49.2145 58.7693 43.9997 62.8064 41.604L74.846 34.4593C82.2078 30.0906 91.7172 32.517 96.0859 39.8787C100.455 47.2405 98.0282 56.7499 90.6664 61.1185Z" fill="#505050" stroke="black"/>
<mask id="path-2-inside-1" fill="white">
<path fill-rule="evenodd" clip-rule="evenodd" d="M92.5784 60.4214C92.0566 60.826 91.5041 61.2029 90.9216 61.5485L78.022 69.2036C76.6708 70.0054 75.1794 70.3637 73.7171 70.3217L71.6567 66.8497C70.2474 64.4749 71.0301 61.4074 73.4049 59.9981L74.9685 59.0702C75.1538 58.9602 75.3434 58.8636 75.5361 58.78C74.9233 55.9212 76.157 52.8679 78.8103 51.2934L78.9667 51.2006C82.2914 49.2276 86.5859 50.3234 88.5589 53.648L92.5784 60.4214Z"/>
</mask>
<path fill-rule="evenodd" clip-rule="evenodd" d="M92.5784 60.4214C92.0566 60.826 91.5041 61.2029 90.9216 61.5485L78.022 69.2036C76.6708 70.0054 75.1794 70.3637 73.7171 70.3217L71.6567 66.8497C70.2474 64.4749 71.0301 61.4074 73.4049 59.9981L74.9685 59.0702C75.1538 58.9602 75.3434 58.8636 75.5361 58.78C74.9233 55.9212 76.157 52.8679 78.8103 51.2934L78.9667 51.2006C82.2914 49.2276 86.5859 50.3234 88.5589 53.648L92.5784 60.4214Z" fill="#E4E4E4"/>
<path d="M92.5784 60.4214L93.1912 61.2116L93.889 60.6705L93.4384 59.9111L92.5784 60.4214ZM90.9216 61.5485L91.4319 62.4085L90.9216 61.5485ZM78.022 69.2036L77.5116 68.3436L78.022 69.2036ZM73.7171 70.3217L72.8571 70.832L73.1381 71.3055L73.6884 71.3213L73.7171 70.3217ZM73.4049 59.9981L73.9152 60.8581L73.4049 59.9981ZM74.9685 59.0702L74.4581 58.2103L74.9685 59.0702ZM75.5361 58.78L75.9341 59.6974L76.6856 59.3714L76.5139 58.5704L75.5361 58.78ZM88.5589 53.648L87.6989 54.1584L88.5589 53.648ZM91.9656 59.6312C91.4764 60.0105 90.9581 60.364 90.4113 60.6885L91.4319 62.4085C92.0501 62.0417 92.6369 61.6415 93.1912 61.2116L91.9656 59.6312ZM90.4113 60.6885L77.5116 68.3436L78.5323 70.0635L91.4319 62.4085L90.4113 60.6885ZM77.5116 68.3436C76.3281 69.046 75.0245 69.3588 73.7458 69.3221L73.6884 71.3213C75.3344 71.3686 77.0135 70.9648 78.5323 70.0635L77.5116 68.3436ZM70.7967 67.36L72.8571 70.832L74.5771 69.8114L72.5167 66.3393L70.7967 67.36ZM72.8945 59.1381C70.0448 60.8292 69.1056 64.5103 70.7967 67.36L72.5167 66.3393C71.3893 64.4395 72.0154 61.9855 73.9152 60.8581L72.8945 59.1381ZM74.4581 58.2103L72.8945 59.1381L73.9152 60.8581L75.4788 59.9302L74.4581 58.2103ZM75.1382 57.8626C74.907 57.9629 74.6798 58.0787 74.4581 58.2103L75.4788 59.9302C75.6279 59.8417 75.7799 59.7643 75.9341 59.6974L75.1382 57.8626ZM78.3 50.4334C75.2663 52.2337 73.8582 55.7236 74.5584 58.9896L76.5139 58.5704C75.9884 56.1188 77.0477 53.5022 79.3207 52.1533L78.3 50.4334ZM78.4564 50.3406L78.3 50.4334L79.3207 52.1533L79.477 52.0605L78.4564 50.3406ZM89.4189 53.1377C87.164 49.3381 82.256 48.0858 78.4564 50.3406L79.477 52.0605C82.3267 50.3694 86.0078 51.3087 87.6989 54.1584L89.4189 53.1377ZM93.4384 59.9111L89.4189 53.1377L87.6989 54.1584L91.7184 60.9317L93.4384 59.9111Z" fill="black" mask="url(#path-2-inside-1)"/>
<ellipse cx="82.3061" cy="61.2341" rx="2" ry="0.716879" transform="rotate(59.5822 82.3061 61.2341)" fill="black"/>
<path d="M83.5439 55.877L86.2178 62.5178L85.7663 56.488L83.5439 55.877Z" fill="black"/>
<path d="M68.4856 63.4969L68.8188 66.9942C69.4736 73.8667 64.4331 79.9687 57.5607 80.6234L48.1386 81.5211C37.9674 82.4902 28.9365 75.0303 27.9674 64.8591L27.6342 61.3618C27.0842 55.5889 31.3182 50.4633 37.091 49.9133L50.495 48.6362C59.5667 47.7719 67.6213 54.4253 68.4856 63.4969Z" fill="#505050" stroke="black"/>
<path d="M48.8783 94.679L49.2021 88.5658C49.2816 87.063 50.6611 85.9707 52.142 86.2376L69.0049 89.2771C70.2447 89.5006 71.1245 90.6116 71.0579 91.8697L70.9155 94.5584C70.8464 95.8641 69.7827 96.896 68.4755 96.9255L51.4313 97.3106C49.9766 97.3435 48.8013 96.132 48.8783 94.679Z" fill="#505050" stroke="black"/>
<path d="M59.4749 64.1594L63.5285 65.2574C66.5993 66.0892 68.3578 69.3535 67.3611 72.3722L60.5981 92.8565C59.7068 95.556 56.9088 97.1042 54.1465 96.4262L52.8399 96.1056C49.9776 95.4031 48.1509 92.5608 48.6985 89.6616L52.7145 68.4C53.3052 65.2731 56.4059 63.3281 59.4749 64.1594Z" fill="#505050" stroke="black"/>
<path d="M34.7304 57.5915L41.1533 61.4641C46.356 64.6009 48.0307 71.3613 44.8939 76.564L44.6357 76.9922C40.786 83.3773 32.4891 85.4326 26.104 81.5829L22.6784 79.5175C17.7122 76.5233 16.1137 70.0701 19.1079 65.104L21.6896 60.822C24.3986 56.3288 30.2372 54.8825 34.7304 57.5915Z" fill="#505050" stroke="black"/>
<path d="M33.8464 68.6554L35.8084 69.0437C38.7882 69.6334 40.7257 72.5271 40.1359 75.5068L36.0197 96.3047C35.6444 98.201 33.803 99.4339 31.9068 99.0586L26.021 97.8937C24.1247 97.5184 22.8918 95.677 23.2671 93.7808L27.3833 72.9829C27.973 70.0031 30.8667 68.0656 33.8464 68.6554Z" fill="#505050" stroke="black"/>
</g>
<defs>
<clipPath id="clip0">
<rect width="100" height="100" fill="white"/>
</clipPath>
</defs>
</svg>
