<svg width="150" height="100" viewBox="0 0 150 100" fill="none" xmlns="http://www.w3.org/2000/svg">
<g clip-path="url(#clip0)">
<path d="M98.8187 18.9937L96.9167 33.8726C96.3915 37.9813 92.6349 40.8863 88.5262 40.361L73.6473 38.459C68.9908 37.8638 65.6985 33.6064 66.2937 28.9498L68.0689 15.0628C69.1544 6.57152 76.9179 0.567896 85.4092 1.65336C93.9005 2.73883 99.9042 10.5024 98.8187 18.9937Z" fill="#505050" stroke="black"/>
<path d="M88.1501 29.6078L88.2528 29.2113L87.8842 29.0325C85.4409 27.8476 83.9115 25.1995 84.2746 22.3584L84.2977 22.1781C84.7529 18.6172 88.0086 16.0996 91.5694 16.5548L98.9379 17.4967C98.9223 17.9922 98.8829 18.4916 98.8187 18.9937L96.9167 33.8726C96.7422 35.2378 96.2115 36.4689 95.43 37.486L91.7041 37.0097C89.2389 36.6945 87.4959 34.4406 87.811 31.9754L88.0416 30.1719C88.0662 29.979 88.1027 29.7908 88.1501 29.6078Z" fill="#E4E4E4" stroke="black"/>
<ellipse cx="94" cy="24.5" rx="2" ry="1.5" fill="black"/>
<path d="M90 20.5L97 22L91.75 19L90 20.5Z" fill="black"/>
<path d="M79.7794 37.5002L82.2944 39.9532C87.2365 44.7734 87.3353 52.6874 82.515 57.6295L75.9065 64.405C68.7725 71.7194 57.0599 71.8656 49.7456 64.7316L47.2306 62.2786C43.0792 58.2296 42.9962 51.5819 47.0452 47.4305L56.4466 37.7914C62.8094 31.2678 73.2558 31.1374 79.7794 37.5002Z" fill="#505050" stroke="black"/>
<path d="M109.059 44.4205L104.281 40.5927C103.107 39.6518 103.024 37.8942 104.104 36.8467L116.407 24.9199C117.311 24.043 118.727 23.9761 119.71 24.7638L121.811 26.4473C122.832 27.2649 123.05 28.7307 122.311 29.8099L112.686 43.881C111.864 45.0819 110.194 45.3302 109.059 44.4205Z" fill="#505050" stroke="black"/>
<path d="M78.0894 51.2088L77.0249 47.1462C76.2185 44.0687 78.1752 40.9191 81.2895 40.2817L102.423 35.9561C105.208 35.386 107.943 37.0428 108.73 39.7763L109.102 41.0692C109.917 43.9016 108.36 46.9003 105.573 47.8678L85.1314 54.963C82.1252 56.0065 78.8953 54.2846 78.0894 51.2088Z" fill="#505050" stroke="black"/>
<path d="M56.6326 69.8894L58.4385 69.0299C61.1812 67.7246 64.4629 68.8898 65.7683 71.6326L74.8794 90.7763C75.7101 92.5217 74.9686 94.6101 73.2232 95.4408L67.8055 98.0192C66.0601 98.8499 63.9718 98.1084 63.1411 96.363L54.0299 77.2193C52.7246 74.4765 53.8898 71.1948 56.6326 69.8894Z" fill="#505050" stroke="black"/>
<path d="M46 54.5H53.5C59.5751 54.5 64.5 59.4249 64.5 65.5V66C64.5 73.4558 58.4558 79.5 51 79.5H47C41.201 79.5 36.5 74.799 36.5 69V64C36.5 58.7533 40.7533 54.5 46 54.5Z" fill="#505050" stroke="black"/>
<path d="M49.8464 68.534L51.8084 68.9223C54.7882 69.512 56.7257 72.4057 56.1359 75.3855L52.0197 96.1834C51.6444 98.0796 49.803 99.3125 47.9068 98.9373L42.021 97.7724C40.1247 97.3971 38.8918 95.5557 39.2671 93.6594L43.3833 72.8615C43.973 69.8818 46.8667 67.9443 49.8464 68.534Z" fill="#505050" stroke="black"/>
<rect x="91.476" y="30" width="6" height="2" transform="rotate(13.7698 91.476 30)" fill="black"/>
</g>
<defs>
<clipPath id="clip0">
<rect width="150" height="100" fill="white"/>
</clipPath>
</defs>
</svg>
