<svg width="100" height="100" viewBox="0 0 100 100" fill="none" xmlns="http://www.w3.org/2000/svg">
<g clip-path="url(#clip0)">
<path d="M78.8187 25.9937L76.9167 40.8726C76.3914 44.9813 72.6349 47.8863 68.5262 47.361L53.6473 45.459C48.9908 44.8638 45.6984 40.6064 46.2937 35.9498L48.0689 22.0628C49.1544 13.5715 56.9179 7.5679 65.4092 8.65336C73.9005 9.73883 79.9042 17.5024 78.8187 25.9937Z" fill="#505050" stroke="black"/>
<mask id="path-2-inside-1" fill="white">
<path fill-rule="evenodd" clip-rule="evenodd" d="M79.4455 24.0575C79.4434 24.7178 79.4005 25.3852 79.3147 26.0571L77.4126 40.936C77.2134 42.4945 76.5783 43.8906 75.6455 45.0176L71.6407 44.5056C68.9016 44.1555 66.9649 41.6511 67.315 38.912L67.5456 37.1085C67.5729 36.8947 67.6134 36.6857 67.6661 36.4824C65.0353 35.2066 63.3874 32.3555 63.7787 29.2951L63.8017 29.1147C64.2919 25.2799 67.798 22.5686 71.6328 23.0588L79.4455 24.0575Z"/>
</mask>
<path fill-rule="evenodd" clip-rule="evenodd" d="M79.4455 24.0575C79.4434 24.7178 79.4005 25.3852 79.3147 26.0571L77.4126 40.936C77.2134 42.4945 76.5783 43.8906 75.6455 45.0176L71.6407 44.5056C68.9016 44.1555 66.9649 41.6511 67.315 38.912L67.5456 37.1085C67.5729 36.8947 67.6134 36.6857 67.6661 36.4824C65.0353 35.2066 63.3874 32.3555 63.7787 29.2951L63.8017 29.1147C64.2919 25.2799 67.798 22.5686 71.6328 23.0588L79.4455 24.0575Z" fill="#E4E4E4"/>
<path d="M79.4455 24.0575L80.4455 24.0606L80.4482 23.1776L79.5723 23.0656L79.4455 24.0575ZM75.6455 45.0176L75.5187 46.0095L76.0647 46.0793L76.4158 45.6552L75.6455 45.0176ZM67.6661 36.4824L68.6341 36.7332L68.8396 35.9401L68.1024 35.5826L67.6661 36.4824ZM78.4455 24.0544C78.4436 24.6734 78.4034 25.2996 78.3227 25.9303L80.3066 26.1839C80.3977 25.4709 80.4433 24.7621 80.4455 24.0606L78.4455 24.0544ZM78.3227 25.9303L76.4207 40.8092L78.4046 41.0628L80.3066 26.1839L78.3227 25.9303ZM76.4207 40.8092C76.2462 42.1744 75.6908 43.3945 74.8751 44.3799L76.4158 45.6552C77.4658 44.3867 78.1806 42.8146 78.4046 41.0628L76.4207 40.8092ZM71.5139 45.4976L75.5187 46.0095L75.7723 44.0257L71.7675 43.5137L71.5139 45.4976ZM66.3231 38.7852C65.9029 42.0722 68.2269 45.0774 71.5139 45.4976L71.7675 43.5137C69.5762 43.2336 68.0269 41.2301 68.307 39.0388L66.3231 38.7852ZM66.5537 36.9817L66.3231 38.7852L68.307 39.0388L68.5375 37.2353L66.5537 36.9817ZM66.698 36.2316C66.6348 36.4756 66.5864 36.726 66.5537 36.9817L68.5375 37.2353C68.5595 37.0634 68.592 36.8958 68.6341 36.7332L66.698 36.2316ZM62.7867 29.1683C62.3394 32.6674 64.2243 35.9246 67.2297 37.3822L68.1024 35.5826C65.8464 34.4885 64.4355 32.0436 64.7706 29.4219L62.7867 29.1683ZM62.8098 28.9879L62.7867 29.1683L64.7706 29.4219L64.7937 29.2415L62.8098 28.9879ZM71.7596 22.0669C67.377 21.5066 63.37 24.6053 62.8098 28.9879L64.7937 29.2415C65.2138 25.9545 68.2191 23.6306 71.506 24.0507L71.7596 22.0669ZM79.5723 23.0656L71.7596 22.0669L71.506 24.0507L79.3187 25.0494L79.5723 23.0656Z" fill="black" mask="url(#path-2-inside-1)"/>
<path d="M59.7794 44.5002L62.2944 46.9532C67.2365 51.7734 67.3353 59.6874 62.515 64.6295L55.9065 71.405C48.7725 78.7194 37.0599 78.8656 29.7456 71.7316L27.2306 69.2786C23.0792 65.2296 22.9962 58.5819 27.0452 54.4305L36.4467 44.7914C42.8094 38.2678 53.2558 38.1374 59.7794 44.5002Z" fill="#505050" stroke="black"/>
<path d="M59.8281 83.4656L64.3233 79.3099C65.4283 78.2884 67.1787 78.4674 68.054 79.6915L78.0202 93.6295C78.753 94.6543 78.6088 96.0642 77.6837 96.9194L75.7066 98.7471C74.7465 99.6347 73.2646 99.6325 72.3071 98.7421L59.8226 87.132C58.7572 86.1412 58.7597 84.4533 59.8281 83.4656Z" fill="#505050" stroke="black"/>
<path d="M57.7174 51.8311L61.893 51.3822C65.0562 51.0421 67.88 53.445 68.0476 56.6195L69.1846 78.1614C69.3344 81.0003 67.2896 83.4588 64.4696 83.8302L63.1358 84.0059C60.2138 84.3908 57.4797 82.4058 56.9371 79.5056L52.9584 58.237C52.3732 55.1091 54.556 52.171 57.7174 51.8311Z" fill="#505050" stroke="black"/>
<path d="M28 61.5H35.5C41.5751 61.5 46.5 66.4249 46.5 72.5V73C46.5 80.4558 40.4558 86.5 33 86.5H29C23.201 86.5 18.5 81.799 18.5 76V71C18.5 65.7533 22.7533 61.5 28 61.5Z" fill="#505050" stroke="black"/>
<path d="M38.8464 68.534L40.8084 68.9223C43.7882 69.512 45.7257 72.4057 45.1359 75.3855L41.0197 96.1834C40.6444 98.0796 38.803 99.3125 36.9068 98.9373L31.021 97.7724C29.1247 97.3971 27.8918 95.5557 28.2671 93.6594L32.3833 72.8615C32.973 69.8818 35.8667 67.9443 38.8464 68.534Z" fill="#505050" stroke="black"/>
</g>
<defs>
<clipPath id="clip0">
<rect width="100" height="100" fill="white"/>
</clipPath>
</defs>
</svg>
