<svg width="100" height="100" viewBox="0 0 100 100" fill="none" xmlns="http://www.w3.org/2000/svg">
<g clip-path="url(#clip0)">
<path d="M78.8187 25.9937L76.9167 40.8726C76.3914 44.9813 72.6349 47.8863 68.5262 47.361L53.6473 45.459C48.9908 44.8638 45.6984 40.6064 46.2937 35.9498L48.0689 22.0628C49.1544 13.5715 56.9179 7.5679 65.4092 8.65336C73.9005 9.73883 79.9042 17.5024 78.8187 25.9937Z" fill="#505050" stroke="black"/>
<path d="M68.1501 36.6078L68.2528 36.2113L67.8842 36.0325C65.4409 34.8476 63.9115 32.1995 64.2746 29.3584L64.2977 29.1781C64.7529 25.6172 68.0086 23.0996 71.5694 23.5548L78.9379 24.4967C78.9223 24.9922 78.8829 25.4916 78.8187 25.9937L76.9167 40.8726C76.7422 42.2378 76.2115 43.4689 75.43 44.486L71.7041 44.0097C69.2389 43.6945 67.4959 41.4406 67.811 38.9754L68.0416 37.1719C68.0662 36.979 68.1027 36.7908 68.1501 36.6078Z" fill="#E4E4E4" stroke="black"/>
<rect x="71.476" y="38" width="6" height="2" transform="rotate(13.7698 71.476 38)" fill="black"/>
<path d="M59.7794 44.5002L62.2944 46.9532C67.2365 51.7734 67.3353 59.6874 62.515 64.6295L55.9065 71.405C48.7725 78.7194 37.0599 78.8656 29.7456 71.7316L27.2306 69.2786C23.0792 65.2296 22.9962 58.5819 27.0452 54.4305L36.4467 44.7914C42.8094 38.2678 53.2558 38.1374 59.7794 44.5002Z" fill="#505050" stroke="black"/>
<path d="M59.8281 83.4656L64.3233 79.3099C65.4283 78.2884 67.1787 78.4674 68.054 79.6915L78.0202 93.6295C78.753 94.6543 78.6088 96.0642 77.6837 96.9194L75.7066 98.7471C74.7465 99.6347 73.2646 99.6325 72.3071 98.7421L59.8226 87.132C58.7572 86.1412 58.7597 84.4533 59.8281 83.4656Z" fill="#505050" stroke="black"/>
<path d="M57.7174 51.8311L61.893 51.3822C65.0562 51.0421 67.88 53.445 68.0476 56.6195L69.1846 78.1614C69.3344 81.0003 67.2896 83.4588 64.4696 83.8302L63.1358 84.0059C60.2138 84.3908 57.4797 82.4058 56.9371 79.5056L52.9584 58.237C52.3732 55.1091 54.556 52.171 57.7174 51.8311Z" fill="#505050" stroke="black"/>
<path d="M28 61.5H35.5C41.5751 61.5 46.5 66.4249 46.5 72.5V73C46.5 80.4558 40.4558 86.5 33 86.5H29C23.201 86.5 18.5 81.799 18.5 76V71C18.5 65.7533 22.7533 61.5 28 61.5Z" fill="#505050" stroke="black"/>
<ellipse cx="74" cy="32.5" rx="2" ry="1.5" fill="black"/>
<path d="M70 28.5L77 30L71.75 27L70 28.5Z" fill="black"/>
<path d="M38.8464 68.534L40.8084 68.9223C43.7882 69.512 45.7257 72.4057 45.1359 75.3855L41.0197 96.1834C40.6444 98.0796 38.803 99.3125 36.9068 98.9373L31.021 97.7724C29.1247 97.3971 27.8918 95.5557 28.2671 93.6594L32.3833 72.8615C32.973 69.8818 35.8667 67.9443 38.8464 68.534Z" fill="#505050" stroke="black"/>
</g>
<defs>
<clipPath id="clip0">
<rect width="100" height="100" fill="white"/>
</clipPath>
</defs>
</svg>
