<svg width="100" height="100" viewBox="0 0 100 100" fill="none" xmlns="http://www.w3.org/2000/svg">
<g clip-path="url(#clip0)">
<path d="M92.9297 27.5282C94.4642 25.2324 93.8537 22.1137 91.4735 20.7137C78.8124 13.267 64.4435 9.13778 49.7055 8.75139C34.9675 8.36501 20.402 11.7357 7.36813 18.5088C4.9178 19.7821 4.14476 22.8645 5.5569 25.2375L43.3773 88.7935C45.2571 91.9523 49.7883 92.0711 51.831 89.0151L92.9297 27.5282Z" fill="#D7C198"/>
<path d="M34.8558 19.7037C25.6006 19.7037 19.3035 20.6168 14.8581 23.5705C13.3569 24.5679 13.1123 26.574 14.005 28.1397C24.5695 46.6684 43.3566 79.5943 44.5 81.5C46 84 50 85 52 81.5C53.8201 78.3149 81.3128 37.6531 86.2452 29.3258C86.7859 28.4131 86.5918 27.425 85.7637 26.7619C77.772 20.3622 67.6974 26.4967 59.8829 26.4967C46.4833 26.4967 46.6543 19.7037 34.8558 19.7037Z" fill="#FFF61B"/>
<circle cx="32" cy="35" r="7" fill="#C00202"/>
<circle cx="62" cy="43" r="7" fill="#C00202"/>
<circle cx="47" cy="63" r="7" fill="#C00202"/>
</g>
<defs>
<clipPath id="clip0">
<rect width="100" height="100" fill="white"/>
</clipPath>
</defs>
</svg>
