<svg width="100" height="100" viewBox="0 0 100 100" fill="none" xmlns="http://www.w3.org/2000/svg">
<g clip-path="url(#clip0)">
<path d="M7 89C42.5 89 63 81 63 29.5L55 18C52 17.5 45 26 45 26C45 33.6 22 82 -1.5 82C-8.50416 82 -20 80 -25.5 76.5C-19.5 83.7 -2 89 7 89Z" fill="#AB4B2D" stroke="#491403"/>
<path d="M-15.5316 1.5066C-48.6359 40.9372 -37.1022 61.0629 -8.22404 85.3077C-0.902818 91.4543 16.7397 99.3481 26.2487 97.9332C19.5248 96.8567 8.88771 90.5368 3.19004 85.7533C-9.88665 74.7747 -12.7 48.1974 -11.6087 30.6367C-9.68791 25.9505 -8.22406 14.5 -8.22406 14.5C-9.76756 16.3385 -11.1046 22.5258 -11.6087 30.6367C-12.2051 32.0919 -12.8456 32.8948 -13.5 32.5L-15.5316 1.5066Z" fill="#AB4B2D"/>
<path d="M-15.5316 1.5066C-48.6359 40.9372 -37.1022 61.0629 -8.22404 85.3077C-0.902818 91.4543 16.7397 99.3481 26.2487 97.9332C19.5248 96.8567 8.88771 90.5368 3.19004 85.7533C-15.9265 69.7039 -13.1093 20.3189 -8.22406 14.5C-8.22406 14.5 -10.7382 34.166 -13.5 32.5L-15.5316 1.5066Z" stroke="#491403"/>
<path d="M53.4725 99.5H34.5V95.5H49C51.3163 95.5 53.2238 97.25 53.4725 99.5Z" fill="#AB4B2D" stroke="#491403"/>
<path d="M66.2546 65.3395L62.685 59.3118L65.4321 57.685L67.1372 60.5642C68.09 62.1731 67.6815 64.2108 66.2546 65.3395Z" fill="#AB4B2D" stroke="#491403"/>
<path d="M78.0144 34.9739L50.0863 30.464C45.6789 29.7523 42.8654 25.3715 44.0515 21.0674L45.723 15.0018C47.1083 9.97478 51.9551 6.75457 56.8414 8.23905C60.0601 9.21689 63.5251 10.6081 66.2431 12.5335C68.9617 14.4594 70.8709 16.8729 71.1261 19.892C71.1859 20.5998 71.6932 21.2333 72.4193 21.3887C74.2831 21.7875 77.5499 22.7595 80.81 23.7869C84.9077 25.0783 86.14 30.238 83.1076 33.3095C81.7789 34.6553 79.8814 35.2754 78.0144 34.9739Z" fill="#AB4B2D" stroke="#491403"/>
<rect x="27.6791" y="86.0891" width="5" height="15.3105" rx="2.5" transform="rotate(-28.8162 27.6791 86.0891)" fill="#AB4B2D" stroke="#491403"/>
<rect x="58.7834" y="63.5132" width="3.0653" height="8.15277" rx="1.53265" transform="rotate(-111.71 58.7834 63.5132)" fill="#AB4B2D" stroke="#491403"/>
<path d="M45.4415 78.6424L33.1641 87.5555C32.0712 88.3489 30.5781 88.2945 29.5459 87.4236C28.4741 86.5193 28.1914 84.9834 28.8708 83.7568L36.2224 70.4853C38.1473 67.0104 42.7672 66.16 45.8033 68.7216C48.9323 71.3616 48.7546 76.2373 45.4415 78.6424Z" fill="#AB4B2D" stroke="#491403"/>
<path d="M59.3564 53.1004L59.7766 61.2698C59.8086 61.8911 59.4125 62.4541 58.817 62.6341C58.1986 62.8209 57.5344 62.5444 57.2313 61.9739L53.3932 54.7501C52.4564 52.9869 53.3639 50.8071 55.2752 50.2297C57.245 49.6346 59.2507 51.0454 59.3564 53.1004Z" fill="#AB4B2D" stroke="#491403"/>
<path d="M82.873 34.1931L80.2186 30.0153L76.6376 32.2905L73.9832 28.1127L70.4022 30.3879L68.127 26.8069" stroke="#491403"/>
<ellipse cx="65.2338" cy="19.8301" rx="2" ry="1.5" transform="rotate(10.1866 65.2338 19.8301)" fill="#491403"/>
</g>
<defs>
<clipPath id="clip0">
<rect width="100" height="100" fill="white"/>
</clipPath>
</defs>
</svg>
