<svg width="100" height="100" viewBox="0 0 100 100" fill="none" xmlns="http://www.w3.org/2000/svg">
<g clip-path="url(#clip0)">
<path d="M0 95.5005C0.163779 95.5002 0.330417 95.5 0.499974 95.5C2.66894 95.5 5.11157 95.6043 7.76361 95.7174C28.3432 96.5958 61.5323 98.0123 77.303 55.4285L75.2793 41.5665C72.8181 39.7796 62.7595 44.2599 62.7595 44.2599C59.6168 50.558 22.2124 89.5623 0 86.9556V95.5005Z" fill="#AB4B2D" stroke="#491403"/>
<path d="M53.4725 99.5H34.5V95.5H49C51.3163 95.5 53.2238 97.25 53.4725 99.5Z" fill="#AB4B2D" stroke="#491403"/>
<path d="M63.0373 90.751L62.5346 83.7637L65.719 83.5346L65.9591 86.8722C66.0933 88.7372 64.8181 90.3782 63.0373 90.751Z" fill="#AB4B2D" stroke="#491403"/>
<rect x="22.6782" y="92.0698" width="5" height="15.3105" rx="2.5" transform="rotate(-61.4393 22.6782 92.0698)" fill="#AB4B2D" stroke="#491403"/>
<rect x="57.6663" y="82.4345" width="3.0653" height="8.15277" rx="1.53265" transform="rotate(-64.5651 57.6663 82.4345)" fill="#AB4B2D" stroke="#491403"/>
<path d="M39.6503 91.5609L24.685 94.0546C23.3528 94.2765 22.0411 93.5611 21.5063 92.321C20.9511 91.0334 21.3838 89.5328 22.5395 88.7386L35.0432 80.1458C38.317 77.896 42.8306 79.1977 44.4035 82.8454C46.0246 86.6048 43.6886 90.8881 39.6503 91.5609Z" fill="#AB4B2D" stroke="#491403"/>
<path d="M63.5054 74.9191L60.2338 82.4165C59.985 82.9868 59.3793 83.3137 58.766 83.2088C58.1293 83.0999 57.6584 82.5559 57.6419 81.9101L57.433 73.7326C57.382 71.7367 59.1672 70.1915 61.1353 70.5281C63.1636 70.8751 64.3284 73.0331 63.5054 74.9191Z" fill="#AB4B2D" stroke="#491403"/>
<path d="M78.629 72.973L63.4996 49.0686C61.112 45.2962 62.5284 40.2861 66.5378 38.3222L72.1881 35.5546C76.8709 33.2608 82.4944 34.7568 84.6207 39.4C86.0212 42.4585 87.2755 45.9754 87.6346 49.2869C87.9938 52.599 87.4514 55.6282 85.3595 57.82C84.869 58.3338 84.7308 59.1335 85.0955 59.7803C86.0319 61.4404 87.4688 64.5311 88.8597 67.6535C90.6079 71.5781 87.5603 75.9201 83.2506 75.6845C81.3622 75.5812 79.6404 74.571 78.629 72.973Z" fill="#AB4B2D" stroke="#491403"/>
<path d="M82.4334 76.0943L83.8033 71.3378L79.7263 70.1637L81.0962 65.4073L77.0193 64.2331L78.1934 60.1562" stroke="#491403"/>
<ellipse cx="81.5013" cy="53.3661" rx="2" ry="0.596114" transform="rotate(58.6833 81.5013 53.3661)" fill="#491403"/>
<path d="M0 95.8124C9.74008 98.066 26.9443 98.0404 34.5545 93.3752C27.9458 95.0168 15.6836 93.3655 8.56808 91.1942C5.59371 90.2866 2.73006 88.7695 0 86.7949V95.8124Z" fill="#AB4B2D" stroke="#491403"/>
</g>
<defs>
<clipPath id="clip0">
<rect width="100" height="100" fill="white"/>
</clipPath>
</defs>
</svg>
