<svg width="100" height="100" viewBox="0 0 100 100" fill="none" xmlns="http://www.w3.org/2000/svg">
<g clip-path="url(#clip0)">
<path d="M0.499974 95.5C19.5 95.5 59.5 103.5 77.303 55.4285L75.2793 41.5665C72.8181 39.7796 62.7595 44.2599 62.7595 44.2599C59.3662 51.0603 16.0275 95.9925 -5.00003 85.5C-11.2673 82.3727 -8.14137 92.5875 -11.5 87C-9.34598 96.1214 -9.50003 95.5 0.499974 95.5Z" fill="#AB4B2D" stroke="#491403"/>
<path d="M53.4725 99.5H34.5V95.5H49C51.3163 95.5 53.2238 97.25 53.4725 99.5Z" fill="#AB4B2D" stroke="#491403"/>
<path d="M63.0373 90.751L62.5346 83.7637L65.719 83.5346L65.9591 86.8722C66.0933 88.7372 64.8181 90.3782 63.0373 90.751Z" fill="#AB4B2D" stroke="#491403"/>
<rect x="22.6782" y="92.0698" width="5" height="15.3105" rx="2.5" transform="rotate(-61.4393 22.6782 92.0698)" fill="#AB4B2D" stroke="#491403"/>
<rect x="57.6663" y="82.4345" width="3.0653" height="8.15277" rx="1.53265" transform="rotate(-64.5651 57.6663 82.4345)" fill="#AB4B2D" stroke="#491403"/>
<path d="M39.6503 91.5609L24.685 94.0546C23.3528 94.2765 22.0411 93.5611 21.5063 92.321C20.9511 91.0334 21.3838 89.5328 22.5395 88.7386L35.0432 80.1458C38.317 77.896 42.8306 79.1977 44.4035 82.8454C46.0246 86.6048 43.6886 90.8881 39.6503 91.5609Z" fill="#AB4B2D" stroke="#491403"/>
<path d="M63.5054 74.9191L60.2338 82.4165C59.985 82.9868 59.3793 83.3137 58.766 83.2088C58.1293 83.0999 57.6584 82.5559 57.6419 81.9101L57.433 73.7326C57.382 71.7367 59.1672 70.1915 61.1353 70.5281C63.1636 70.8751 64.3284 73.0331 63.5054 74.9191Z" fill="#AB4B2D" stroke="#491403"/>
<path d="M79.629 73.973L64.4996 50.0686C62.112 46.2962 63.5284 41.2861 67.5378 39.3222L73.1881 36.5546C77.8709 34.2608 83.4944 35.7568 85.6207 40.4C87.0212 43.4585 88.2755 46.9754 88.6346 50.2869C88.9938 53.599 88.4514 56.6282 86.3595 58.82C85.869 59.3338 85.7308 60.1335 86.0955 60.7803C87.0319 62.4404 88.4688 65.5311 89.8597 68.6535C91.6079 72.5781 88.5603 76.9201 84.2506 76.6845C82.3622 76.5812 80.6404 75.571 79.629 73.973Z" fill="#AB4B2D" stroke="#491403"/>
<path d="M83.4334 77.0943L84.8033 72.3378L80.7263 71.1637L82.0962 66.4073L78.0193 65.2331L79.1934 61.1562" stroke="#491403"/>
<ellipse cx="82.5013" cy="54.3661" rx="2" ry="0.596114" transform="rotate(58.6833 82.5013 54.3661)" fill="#491403"/>
<path d="M-41.6394 21C-56.6658 70.243 -38.174 84.2474 -2.1095 95.2524C7.03361 98.0424 26.3583 98.3997 34.5545 93.3752C27.9458 95.0168 15.6836 93.3655 8.56808 91.1942C-7.76277 86.2109 -20.7558 62.856 -26.626 46.2695C-26.693 41.2055 -29.8285 30.0957 -29.8285 30.0957C-30.5291 32.3917 -29.3373 38.6087 -26.626 46.2695C-26.6052 47.8421 -26.8802 48.8316 -27.637 48.7245L-41.6394 21Z" fill="#AB4B2D"/>
<path d="M-41.6394 21C-56.6658 70.243 -38.174 84.2474 -2.1095 95.2524C7.03361 98.0424 26.3583 98.3997 34.5545 93.3752C27.9458 95.0168 15.6836 93.3655 8.56808 91.1942C-15.3056 83.9092 -32.046 37.3627 -29.8285 30.0957C-29.8285 30.0957 -24.4434 49.1765 -27.637 48.7245L-41.6394 21Z" stroke="#491403"/>
</g>
<defs>
<clipPath id="clip0">
<rect width="100" height="100" fill="white"/>
</clipPath>
</defs>
</svg>
