<svg width="100" height="100" viewBox="0 0 100 100" fill="none" xmlns="http://www.w3.org/2000/svg">
<g clip-path="url(#clip0)">
<path d="M7.0493 94.0479C41.8124 86.8526 60.2655 74.8635 49.8271 24.4325L39.6622 14.7927C36.6231 14.9111 31.4913 24.6535 31.4913 24.6535C33.0317 32.0957 20.3191 84.1529 -2.69308 88.9161C-9.55186 90.3357 -21.2145 90.7073 -27.3097 88.3947C-19.9749 94.2292 -1.76389 95.8721 7.0493 94.0479Z" fill="#AB4B2D" stroke="#491403"/>
<path d="M-7.12492 94.3133C-43.4442 84.1809 -62.2682 70.6263 -48.4332 21.0354L-37.1592 12.245C-33.9556 12.6198 -29.0775 22.8027 -29.0775 22.8027C-31.1192 30.121 -20.5906 83.2915 3.45174 89.9989C10.6175 91.998 22.916 93.3533 29.4832 91.5529C21.4105 96.7734 2.08279 96.8821 -7.12492 94.3133Z" fill="#AB4B2D" stroke="#491403"/>
<path d="M53.4725 99.5H34.5V95.5H49C51.3163 95.5 53.2238 97.25 53.4725 99.5Z" fill="#AB4B2D" stroke="#491403"/>
<path d="M55.3821 59.8818L50.6649 54.7028L53.0252 52.5529L55.2785 55.0268C56.5376 56.4092 56.5507 58.4874 55.3821 59.8818Z" fill="#AB4B2D" stroke="#491403"/>
<rect x="27.6791" y="86.0891" width="5" height="15.3105" rx="2.5" transform="rotate(-28.8162 27.6791 86.0891)" fill="#AB4B2D" stroke="#491403"/>
<rect x="47.6957" y="59.6078" width="3.0653" height="8.15277" rx="1.53265" transform="rotate(-123.404 47.6957 59.6078)" fill="#AB4B2D" stroke="#491403"/>
<path d="M42.5936 76.1137L32.3776 87.3303C31.4682 88.3287 29.995 88.5781 28.8077 87.9345C27.5749 87.2662 26.9867 85.8195 27.4035 84.4806L31.9125 69.9945C33.0931 66.2016 37.4447 64.4324 40.937 66.3255C44.5362 68.2765 45.3503 73.087 42.5936 76.1137Z" fill="#AB4B2D" stroke="#491403"/>
<path d="M50.3689 49.5026L49.2439 57.605C49.1583 58.2212 48.6634 58.6996 48.0445 58.7642C47.402 58.8313 46.8018 58.4347 46.6115 57.8174L44.2018 50.0002C43.6136 48.0922 44.9152 46.1223 46.901 45.9149C48.9476 45.7012 50.652 47.4644 50.3689 49.5026Z" fill="#AB4B2D" stroke="#491403"/>
<path d="M59.2205 38.7305L33.787 26.3428C29.7733 24.3879 28.3456 19.3809 30.7248 15.6032L34.0778 10.2793C36.8566 5.86707 42.4272 4.18478 46.6761 7.0179C49.4749 8.88409 52.3901 11.2172 54.4358 13.8459C56.4819 16.4752 57.6122 19.3374 56.9841 22.3014C56.8369 22.9964 57.1395 23.7494 57.7897 24.108C59.4587 25.0284 62.3053 26.9029 65.1295 28.8285C68.6792 31.2489 68.368 36.5446 64.5774 38.6088C62.9165 39.5132 60.9208 39.5586 59.2205 38.7305Z" fill="#AB4B2D" stroke="#491403"/>
<path d="M64.0975 39.3869L62.7635 34.6203L58.6779 35.7637L57.3439 30.9971L53.2583 32.1405L52.1149 28.0548" stroke="#491403"/>
<ellipse cx="51.3611" cy="20.5395" rx="2" ry="1.5" transform="rotate(26.9824 51.3611 20.5395)" fill="#491403"/>
</g>
<defs>
<clipPath id="clip0">
<rect width="100" height="100" fill="white"/>
</clipPath>
</defs>
</svg>
