<svg width="150" height="100" viewBox="0 0 150 100" fill="none" xmlns="http://www.w3.org/2000/svg">
<g clip-path="url(#clip0)">
<path d="M85.4725 99.5H66.5V95.5H81C83.3163 95.5 85.2238 97.25 85.4725 99.5Z" fill="#AB4B2D" stroke="#491403"/>
<path d="M74.3093 76.8864L64.4567 88.4235C63.5796 89.4505 62.1151 89.7467 60.9079 89.1414C59.6544 88.5128 59.0203 87.0856 59.3941 85.7341L63.4382 71.1114C64.4971 67.2827 68.7899 65.3755 72.3409 67.156C76.0006 68.9911 76.968 73.7731 74.3093 76.8864Z" fill="#AB4B2D" stroke="#491403"/>
<rect x="59.6791" y="86.0891" width="5" height="15.3105" rx="2.5" transform="rotate(-28.8162 59.6791 86.0891)" fill="#AB4B2D" stroke="#491403"/>
<path d="M24.6659 66.9017C55.3241 84.7993 79.0359 83.5744 105 39.0983L101.914 29.7848C99.5756 27.8405 91 29.7847 91 29.7847C87.1684 36.3482 41.1491 68.4188 20.8543 56.5711C14.8054 53.0399 8.1287 44.8938 5.14338 39.0983C6.69512 48.3413 16.8934 62.3643 24.6659 66.9017Z" fill="#AB4B2D" stroke="#491403"/>
<path d="M72.4725 99.5H53.5V95.5H68C70.3163 95.5 72.2238 97.25 72.4725 99.5Z" fill="#AB4B2D" stroke="#491403"/>
<path d="M89.3953 71.0018L87.954 64.1463L91.0784 63.4895L91.7669 66.7642C92.1515 68.594 91.1094 70.3921 89.3953 71.0018Z" fill="#AB4B2D" stroke="#491403"/>
<rect x="46.6791" y="86.0891" width="5" height="15.3105" rx="2.5" transform="rotate(-28.8162 46.6791 86.0891)" fill="#AB4B2D" stroke="#491403"/>
<rect x="82.9084" y="66.8695" width="3.0653" height="8.15277" rx="1.53265" transform="rotate(-92.9487 82.9084 66.8695)" fill="#AB4B2D" stroke="#491403"/>
<path d="M64.4415 78.6424L52.1641 87.5555C51.0712 88.3489 49.5781 88.2945 48.5459 87.4236C47.4741 86.5193 47.1914 84.9834 47.8708 83.7568L55.2224 70.4853C57.1473 67.0104 61.7672 66.16 64.8033 68.7216C67.9323 71.3616 67.7546 76.2373 64.4415 78.6424Z" fill="#AB4B2D" stroke="#491403"/>
<path d="M86.8002 57.1944L84.5706 65.0648C84.401 65.6634 83.8449 66.0692 83.2231 66.048C82.5775 66.026 82.0375 65.5505 81.934 64.9129L80.6232 56.8384C80.3033 54.8676 81.8637 53.0956 83.8591 53.1636C85.9157 53.2336 87.3611 55.2146 86.8002 57.1944Z" fill="#AB4B2D" stroke="#491403"/>
<path d="M126.249 38.1153L98.0244 40.0338C93.5702 40.3365 89.8394 36.7049 90.0221 32.2441L90.2796 25.9576C90.493 20.7476 94.4866 16.5154 99.582 16.8572C102.938 17.0823 106.628 17.6544 109.711 18.9158C112.794 20.1774 115.2 22.097 116.131 24.9803C116.349 25.6563 116.986 26.1588 117.729 26.146C119.634 26.1134 123.036 26.3219 126.444 26.586C130.728 26.9179 133.094 31.6656 130.834 35.3429C129.844 36.9542 128.136 37.9871 126.249 38.1153Z" fill="#AB4B2D" stroke="#491403"/>
<path d="M130.806 36.2567L127.276 32.7868L124.302 35.8125L120.772 32.3426L117.798 35.3683L114.772 32.3941" stroke="white"/>
<ellipse cx="110.377" cy="26.2516" rx="2" ry="1.5" transform="rotate(-2.87485 110.377 26.2516)" fill="#491403"/>
</g>
<defs>
<clipPath id="clip0">
<rect width="150" height="100" fill="white"/>
</clipPath>
</defs>
</svg>
