<?xml version="1.0" encoding="UTF-8" standalone="no"?>
<!-- Created with Inkscape (http://www.inkscape.org/) -->

<svg
   xmlns:dc="http://purl.org/dc/elements/1.1/"
   xmlns:cc="http://creativecommons.org/ns#"
   xmlns:rdf="http://www.w3.org/1999/02/22-rdf-syntax-ns#"
   xmlns:svg="http://www.w3.org/2000/svg"
   xmlns="http://www.w3.org/2000/svg"
   xmlns:sodipodi="http://sodipodi.sourceforge.net/DTD/sodipodi-0.dtd"
   xmlns:inkscape="http://www.inkscape.org/namespaces/inkscape"
   width="793.70081"
   height="1122.5197"
   viewBox="0 0 210 297"
   version="1.1"
   id="svg8"
   inkscape:version="0.92.4 (5da689c313, 2019-01-14)"
   sodipodi:docname="coiner.svg">
  <defs
     id="defs2" />
  <sodipodi:namedview
     id="base"
     pagecolor="#ffffff"
     bordercolor="#666666"
     borderopacity="1.0"
     inkscape:pageopacity="0.0"
     inkscape:pageshadow="2"
     inkscape:zoom="1.4"
     inkscape:cx="457.96079"
     inkscape:cy="860.29874"
     inkscape:document-units="px"
     inkscape:current-layer="g4581"
     showgrid="true"
     showguides="false"
     inkscape:snap-bbox="false"
     inkscape:window-width="1024"
     inkscape:window-height="705"
     inkscape:window-x="-8"
     inkscape:window-y="-8"
     inkscape:window-maximized="1"
     units="px">
    <inkscape:grid
       type="xygrid"
       id="grid10" />
  </sodipodi:namedview>
  <metadata
     id="metadata5">
    <rdf:RDF>
      <cc:Work
         rdf:about="">
        <dc:format>image/svg+xml</dc:format>
        <dc:type
           rdf:resource="http://purl.org/dc/dcmitype/StillImage" />
        <dc:title />
      </cc:Work>
    </rdf:RDF>
  </metadata>
  <g
     inkscape:label="Layer 1"
     inkscape:groupmode="layer"
     id="layer1">
    <g
       id="g4581"
       inkscape:export-filename="F:\app\Coiner\assets\logo\logo.png"
       inkscape:export-xdpi="96"
       inkscape:export-ydpi="96"
       transform="translate(-32.835638,4.4600273)">
      <path
         sodipodi:nodetypes="ccssccsccccsccccccccccccccccccccccccccsccsccccccccccccccccsccccc"
         inkscape:connector-curvature="0"
         id="path4575"
         d="m 67.212891,139.85938 c -1.847747,0 -3.501969,0.61609 -4.523438,1.91796 -0.999905,1.2744 -1.390625,2.98614 -1.390625,5.02539 v 8.66407 c 0,1.73725 0.503345,3.30308 1.580078,4.4375 0.0026,0.003 0.0052,0.007 0.0078,0.01 1.079316,1.11719 2.595584,1.68555 4.238281,1.68555 1.798058,0 3.378769,-0.46572 4.476562,-1.55859 0.420548,-0.41867 0.670654,-0.96378 0.916016,-1.50977 0.20481,0.41967 0.353568,0.87636 0.652344,1.23047 0.0026,0.003 0.0052,0.005 0.0078,0.008 1.055943,1.23193 2.663191,1.83008 4.441407,1.83008 1.778214,0 3.385464,-0.59815 4.441406,-1.83008 0.111752,-0.13038 0.145827,-0.31503 0.244141,-0.45508 v 0.81446 c 3.2e-4,0.71611 0.580764,1.29655 1.296874,1.29687 h 3.63086 c 0.269518,-3e-5 0.532337,-0.084 0.751953,-0.24023 0.219072,0.15585 0.481149,0.23979 0.75,0.24023 h 3.675781 c 0.355978,9e-5 0.696355,-0.14609 0.941406,-0.4043 0.244584,0.25771 0.584154,0.40385 0.939454,0.4043 h 3.677734 c 0.30426,-2.3e-4 0.598763,-0.10738 0.832031,-0.30273 0.233268,0.19535 0.527771,0.3025 0.832031,0.30273 h 7.767583 c 0.21866,-5.1e-4 0.43365,-0.0563 0.625,-0.16211 0.19134,0.10584 0.40633,0.1616 0.625,0.16211 h 3.80664 c 0.25265,-2.3e-4 0.49974,-0.0742 0.71094,-0.21289 0.21175,0.13903 0.45957,0.21304 0.71289,0.21289 h 3.67578 c 0.71307,-3e-4 1.29226,-0.576 1.29688,-1.28906 l 0.043,-7.11133 c 0,-0.003 0,-0.005 0,-0.008 0,-0.91281 -0.14523,-1.74713 -0.56445,-2.47656 -0.0568,-0.10186 -0.16493,-0.16239 -0.23437,-0.25586 0.17529,-0.21727 0.3878,-0.40737 0.50586,-0.66211 0.40044,-0.86412 0.53515,-1.86135 0.53515,-3.03907 0,-1.23047 -0.0882,-2.26906 -0.29687,-3.1582 -0.22344,-0.96822 -0.71427,-1.84544 -1.46289,-2.45312 -0.79566,-0.67227 -1.83858,-0.9375 -2.95118,-0.9375 h -5.77734 c -0.2671,1e-4 -0.52765,0.0826 -0.74609,0.23632 -0.2179,-0.15331 -0.47772,-0.23582 -0.74414,-0.23632 h -7.527353 c -0.30426,2.3e-4 -0.598763,0.10738 -0.832031,0.30273 -0.233268,-0.19535 -0.527771,-0.3025 -0.832031,-0.30273 h -3.632812 c -0.319194,-1.5e-4 -0.627244,0.11736 -0.865235,0.33007 -0.237489,-0.21226 -0.54476,-0.32974 -0.863281,-0.33007 H 88.73439 c -0.269518,3e-5 -0.532337,0.084 -0.751953,0.24023 -0.219072,-0.15585 -0.481149,-0.23979 -0.75,-0.24023 h -3.63086 c -0.71611,3.2e-4 -1.296554,0.58076 -1.296874,1.29687 v 0.67578 c -0.115623,-0.15397 -0.158399,-0.36018 -0.292969,-0.5 -1.073206,-1.12938 -2.640625,-1.64843 -4.392578,-1.64843 -1.751955,0 -3.319372,0.51905 -4.392579,1.64843 -0.35634,0.37023 -0.548261,0.86014 -0.77539,1.32422 -0.271539,-0.55063 -0.566323,-1.09233 -1.025391,-1.50391 -1.107783,-0.99318 -2.589802,-1.46874 -4.21289,-1.46874 z"
         style="font-style:normal;font-variant:normal;font-weight:normal;font-stretch:normal;font-size:16.41202736px;line-height:1.25;font-family:Anton;-inkscape-font-specification:'Anton, Normal';font-variant-ligatures:normal;font-variant-caps:normal;font-variant-numeric:normal;font-feature-settings:normal;text-align:center;letter-spacing:0px;word-spacing:0px;writing-mode:lr-tb;text-anchor:middle;fill:#9f2000;fill-opacity:1;stroke:none;stroke-width:0.34191725"
         transform="translate(0.80180858,-38.754082)"
         inkscape:export-filename="F:\app\Coiner\assets\logo\logo.png"
         inkscape:export-xdpi="96"
         inkscape:export-ydpi="96" />
      <text
         inkscape:export-ydpi="96"
         inkscape:export-xdpi="96"
         inkscape:export-filename="F:\app\Coiner\assets\logo\logo.png"
         id="text14"
         y="121.37425"
         x="90.884483"
         style="font-style:normal;font-variant:normal;font-weight:normal;font-stretch:normal;font-size:16.41202736px;line-height:1.25;font-family:Anton;-inkscape-font-specification:'Anton, Normal';font-variant-ligatures:normal;font-variant-caps:normal;font-variant-numeric:normal;font-feature-settings:normal;text-align:center;letter-spacing:0px;word-spacing:0px;writing-mode:lr-tb;text-anchor:middle;opacity:1;fill:#ffc869;fill-opacity:1;stroke:none;stroke-width:0.34191725"
         xml:space="preserve"><tspan
           style="font-style:normal;font-variant:normal;font-weight:normal;font-stretch:normal;font-size:21.88270378px;font-family:Anton;-inkscape-font-specification:'Anton, Normal';font-variant-ligatures:normal;font-variant-caps:normal;font-variant-numeric:normal;font-feature-settings:normal;text-align:center;writing-mode:lr-tb;text-anchor:middle;fill:#ffc869;fill-opacity:1;stroke-width:0.34191725"
           y="121.37425"
           x="90.884483"
           id="tspan12"
           sodipodi:role="line">COINER</tspan></text>
    </g>
    <g
       id="g4577">
      <rect
         y="90.624992"
         x="15.875"
         height="7.9374986"
         width="7.937499"
         id="rect4542"
         style="fill:#9f2000;fill-opacity:1;stroke-width:0.24804685"
         inkscape:export-xdpi="96"
         inkscape:export-ydpi="96" />
      <rect
         y="90.624992"
         x="23.8125"
         height="7.9374986"
         width="7.937499"
         id="rect4542-1"
         style="fill:#dd8b00;fill-opacity:1;stroke-width:0.24804685"
         inkscape:export-xdpi="96"
         inkscape:export-ydpi="96" />
      <rect
         y="90.624992"
         x="31.750002"
         height="7.9374986"
         width="7.937499"
         id="rect4542-4"
         style="fill:#ffc869;fill-opacity:1;stroke-width:0.24804685"
         inkscape:export-xdpi="96"
         inkscape:export-ydpi="96" />
      <rect
         y="90.624992"
         x="39.6875"
         height="7.9374986"
         width="7.937499"
         id="rect4542-8"
         style="fill:#fffca4;fill-opacity:1;stroke-width:0.24804685"
         inkscape:export-xdpi="96"
         inkscape:export-ydpi="96" />
    </g>
  </g>
</svg>
